<?xml version="1.0" standalone="no"?>
<!DOCTYPE svg PUBLIC "-//W3C//DTD SVG 20010904//EN"
 "http://www.w3.org/TR/2001/REC-SVG-20010904/DTD/svg10.dtd">
<svg version="1.0" xmlns="http://www.w3.org/2000/svg"
 width="424.000000pt" height="424.000000pt" viewBox="0 0 424.000000 424.000000"
 preserveAspectRatio="xMidYMid meet">
<metadata>
Created by potrace 1.14, written by Peter Selinger 2001-2017
</metadata>
<g transform="translate(0.000000,424.000000) scale(0.100000,-0.100000)"
fill="#000000" stroke="none">
<path d="M2639 4068 c-52 -62 -351 -419 -664 -793 -672 -803 -795 -950 -931
-1111 -60 -72 -105 -134 -109 -153 -13 -62 32 -135 100 -162 20 -8 127 -12
330 -13 294 -2 301 -3 342 -25 44 -25 83 -83 83 -122 -1 -13 -90 -370 -199
-794 -208 -810 -207 -801 -157 -822 47 -19 73 -5 143 80 37 45 245 293 462
552 217 258 437 522 490 585 53 63 101 121 108 128 7 7 29 34 50 60 21 26 40
49 43 52 3 3 62 72 130 154 69 82 191 229 272 325 81 97 155 191 164 209 30
63 -6 141 -82 177 -31 14 -76 17 -337 18 -332 2 -337 3 -390 67 -46 54 -44 72
37 385 41 160 129 504 196 765 66 261 123 480 125 487 2 6 -5 23 -16 37 -16
20 -30 26 -58 26 -36 0 -43 -6 -132 -112z"/>
</g>
</svg>
